<svg width="32" height="28" viewBox="0 0 32 28" fill="none" xmlns="http://www.w3.org/2000/svg">
<path d="M16 6.32258L13.857 6.48516C12.4713 4.64258 8.58812 0 4.72105 0C4.72105 0 1.54683 5.3471 4.6566 12.4826C3.77039 13.9819 3.22256 14.7587 3.10977 16.5471L0 17.071L0.338369 18.8413L3.17422 18.3716L3.3998 19.6542L0.870091 21.3523L1.62739 22.96L3.96375 21.3523C5.81672 25.76 10.5055 28 16 28C21.4945 28 26.1833 25.76 28.0363 21.3523L30.3726 22.96L31.1299 21.3523L28.6002 19.6542L28.8258 18.3716L31.6616 18.8413L32 17.071L28.8902 16.5471C28.7774 14.7587 28.2296 13.9819 27.3434 12.4826C30.4532 5.3471 27.279 0 27.279 0C23.4119 0 19.5287 4.64258 18.143 6.48516L16 6.32258Z" fill="url(#paint0_linear_73_8)"/>
<defs>
<linearGradient id="paint0_linear_73_8" x1="23.4667" y1="28" x2="7.02827" y2="6.64692" gradientUnits="userSpaceOnUse">
<stop stop-color="#00E0FF"/>
<stop offset="1" stop-color="white"/>
</linearGradient>
</defs>
</svg>
