<svg width="458" height="395" viewBox="0 0 458 395" fill="none" xmlns="http://www.w3.org/2000/svg">
<g clip-path="url(#clip0_1_2)">
<path d="M91.72 54.44C-89.87 158.27 29.775 281.87 167.81 264.75C337.59 284.47 409.52 140.67 276.59 63.67C227.03 40.45 191.04 43.29 91.72 54.44V54.44Z" fill="white" stroke="white" stroke-width="1.5871"/>
<path d="M49.958 90.03L71.936 -0.0780029L113.693 71.349L49.958 90.03Z" fill="white" stroke="white" stroke-width="1.5772"/>
<path d="M245.56 80.14L288.416 2.12L313.69 131.79L245.56 80.14Z" fill="white" stroke="white" stroke-width="1.5772"/>
<path d="M168.64 264.75C168.64 264.75 162.047 368.05 147.761 377.93C133.476 387.82 220.287 406.501 241.166 386.721C279.484 354.063 210.815 286.681 202.705 261.451C177.638 182.786 168.64 264.748 168.64 264.748V264.75Z" fill="white" stroke="white" stroke-width="1.5772"/>
<path d="M239.87 363.04C239.87 363.04 299.509 358.237 320.942 315.005C342.375 271.773 329.329 237.188 333.988 223.739C338.647 210.289 361.012 156.49 415.06 187.233C469.108 217.975 464.449 263.128 440.22 274.656C415.991 286.184 373.507 284.705 401.082 274.656C427.703 264.954 461.851 247.916 423.447 214.132C393.882 188.124 382.427 187.888 359.148 208.368C331.034 233.102 373.683 294.615 320.01 342.868C270.443 387.428 238.006 372.65 238.006 372.65L239.87 363.04Z" fill="white" stroke="white" stroke-width="1.3581"/>
<path d="M197.07 149.277C215.373 126.183 255.252 45.1444 323.559 152.064C303.989 179.365 287.444 193.669 263.326 200.375C265.342 193.092 222.424 199.931 197.07 149.276V149.277Z" fill="black" stroke="black" stroke-width="1.20044"/>
<path d="M292.484 146.129C292.484 172.797 277.502 194.414 259.02 194.414C240.538 194.414 225.557 172.795 225.557 146.129C225.557 119.462 240.539 97.8452 259.02 97.8452C277.503 97.8452 292.484 119.464 292.484 146.129Z" fill="white" stroke="white" stroke-width="1.10481"/>
<path d="M24.7103 149.277C43.0128 126.183 82.8923 45.1444 151.199 152.064C131.629 179.365 115.084 193.669 90.9664 200.375C92.9825 193.092 50.0643 199.931 24.7103 149.276V149.277Z" fill="black" stroke="black" stroke-width="1.20044"/>
<path d="M120.124 146.129C120.124 172.797 105.142 194.414 86.6605 194.414C68.1785 194.414 53.1966 172.795 53.1966 146.129C53.1966 119.462 68.1795 97.8452 86.6605 97.8452C105.143 97.8452 120.124 119.464 120.124 146.129Z" fill="white" stroke="white" stroke-width="1.10481"/>
<path d="M88.77 200.85C90.6712 200.197 92.7174 200.173 94.6321 199.618C96.101 199.132 97.6336 198.976 99.1689 198.893C99.4222 198.885 99.6754 198.876 99.9287 198.867L90.6017 205.716L89.8591 205.767C88.363 205.919 86.9009 206.221 85.4492 206.614C83.4787 206.959 81.4906 207.261 79.6072 207.969L88.77 200.85H88.77Z" fill="white" stroke="white" stroke-width="0.9"/>
<path d="M92.82 198.68C94.9162 198.601 96.93 198.141 98.9703 197.711C100.28 197.037 101.682 196.741 103.133 196.594C104.398 196.448 105.872 196.752 106.955 195.934C107.597 195.972 108.369 197.18 107.719 197.565C101.566 201.209 100.761 202.916 96.1976 203.786C94.6889 204.029 93.1576 204.057 91.633 204.082C90.1064 204.195 88.5262 203.883 87.0322 204.248C85.6934 204.633 84.3052 204.741 82.9213 204.813C81.9136 204.943 80.8705 204.749 79.8652 204.868C79.4292 204.92 79.0139 205.084 78.5879 205.19C77.2538 205.596 75.8157 205.376 74.4983 205.788C73.2371 206.294 71.8299 206.112 70.5685 206.551C69.2662 207.001 67.8874 207.093 66.5225 207.164C65.5541 207.196 66.012 207.119 65.1448 207.368L74.3981 200.394C75.3449 200.32 74.8656 200.355 75.8361 200.289C77.1787 200.154 78.4895 199.894 79.788 199.525C81.1198 199.352 82.4345 199.121 83.7377 198.793C85.1103 198.656 86.4825 198.521 87.8264 198.194C89.2859 197.968 90.7677 198.084 92.2365 197.941C93.6091 197.811 94.9543 197.55 96.3115 197.317C97.8641 197.264 99.4183 197.313 100.971 197.26C102.455 197.205 103.958 197.144 105.392 196.721C109.021 195.386 115.114 190.995 96.8627 201.838C96.7916 201.88 97.0554 201.745 97.109 201.808C97.9941 202.848 98.0677 202.612 97.803 203.142C96.4916 203.315 95.1743 203.37 93.862 203.534C92.4585 203.797 91.1534 204.334 89.7746 204.686C87.7113 205.115 85.6278 205.337 83.5416 205.624L92.82 198.68L92.82 198.68Z" fill="white" stroke="white" stroke-width="0.9"/>
<path d="M261.3 198.2C262.401 198.197 263.488 198.199 264.579 198.351C265.433 198.489 266.295 198.551 267.158 198.58C267.948 198.678 268.695 198.514 269.466 198.382C270.221 198.207 271.02 198.334 271.763 198.128C272.422 197.895 273.133 197.942 273.8 197.76C274.556 197.555 275.338 197.488 276.117 197.447C276.862 197.508 277.55 197.339 278.268 197.192C278.998 197.146 279.693 196.958 280.407 196.82C281.182 196.775 281.912 196.567 282.67 196.429C283.062 196.447 283.93 196.039 284.236 196.463C284.319 196.579 284.362 196.719 284.426 196.847C270.727 205.051 284.377 197.161 284.255 197.231C281.332 198.897 280.605 200.05 278.173 200.355C277.343 200.434 276.507 200.426 275.674 200.431C274.837 200.434 274.001 200.432 273.164 200.432C272.523 200.485 271.78 200.562 271.188 200.837C270.566 201.105 269.886 201.151 269.218 201.189C268.45 201.221 267.68 201.217 266.911 201.217C266.129 201.215 265.346 201.214 264.564 201.213C263.907 201.408 263.235 201.505 262.554 201.558C261.793 201.604 261.03 201.604 260.268 201.606C259.487 201.606 258.705 201.605 257.923 201.604C257.142 201.603 256.36 201.603 255.579 201.603C254.797 201.603 254.016 201.603 253.235 201.603C252.454 201.603 251.672 201.603 250.891 201.603H248.547C247.6 201.597 246.71 201.21 245.784 201.029C244.727 200.89 243.682 200.681 242.623 200.553C241.464 200.283 240.283 200.129 239.108 199.947C237.893 199.801 236.68 199.741 235.507 199.377C234.51 199.046 233.459 198.959 232.418 198.896C231.542 198.754 230.719 198.43 229.851 198.253C229.059 198.111 228.254 198.095 227.452 198.084C226.657 198.078 225.861 198.085 225.066 198.082C224.9 198.081 224.735 198.08 224.569 198.079L229.23 194.692C229.399 194.69 229.567 194.689 229.736 194.687C230.537 194.681 231.338 194.679 232.138 194.696C232.963 194.724 233.79 194.773 234.596 194.963C235.429 195.168 236.243 195.465 237.102 195.546C238.17 195.643 239.237 195.781 240.259 196.118C241.419 196.404 242.604 196.496 243.786 196.656C244.967 196.835 246.153 196.986 247.323 197.232C248.388 197.386 249.452 197.556 250.513 197.741C251.41 197.943 252.291 198.269 253.226 198.203C254.007 198.203 254.788 198.203 255.57 198.203C256.351 198.203 257.132 198.203 257.913 198.203C258.695 198.203 259.476 198.203 260.257 198.203C261.039 198.203 261.82 198.204 262.602 198.204C263.383 198.205 264.164 198.207 264.945 198.203C265.698 198.196 266.453 198.189 267.202 198.106C267.885 198.017 268.553 197.83 269.242 197.814C270.025 197.815 270.807 197.817 271.589 197.817C272.35 197.814 273.113 197.815 273.871 197.746C274.525 197.669 275.156 197.523 275.772 197.285C276.456 197.152 277.138 196.982 277.842 197.034C278.675 197.036 279.507 197.04 280.34 197.034C281.161 197.023 281.989 197.021 282.797 196.861C283.049 196.796 283.145 196.782 283.379 196.68C283.458 196.646 283.684 196.518 283.609 196.562C282.015 197.487 277.182 200.172 278.82 199.327C282.408 197.474 288.717 193.355 279.177 199.427C279.245 199.519 279.329 199.602 279.382 199.703C279.418 199.773 279.228 199.741 279.15 199.751C278.785 199.796 278.42 199.838 278.06 199.919C277.31 200.082 276.554 200.181 275.798 200.313C275.085 200.468 274.366 200.56 273.65 200.691C272.926 200.838 272.199 200.845 271.463 200.879C270.695 200.947 269.937 201.073 269.186 201.254C268.498 201.348 267.815 201.46 267.136 201.612C266.37 201.672 265.602 201.709 264.846 201.858C264.055 201.988 263.266 202.025 262.465 201.956C261.598 201.905 260.736 201.809 259.877 201.677C258.792 201.554 257.702 201.587 256.611 201.606L261.3 198.2L261.3 198.2Z" fill="white" stroke="white" stroke-width="0.9"/>
</g>
<defs>
<clipPath id="clip0_1_2">
<rect width="458" height="395" fill="white"/>
</clipPath>
</defs>
</svg>
